<svg xmlns="http://www.w3.org/2000/svg" width="500" height="500" viewBox="0 0 500 500" version="1.1"><path d="M 245.119 107.750 C 246.662 115.862, 247.941 122.612, 247.962 122.750 C 247.983 122.888, 249.048 123, 250.329 123 C 252.433 123, 252.931 122.009, 255.478 112.750 C 257.030 107.112, 258.536 102.077, 258.826 101.561 C 259.115 101.044, 260.119 105.191, 261.056 110.776 C 263.143 123.214, 263.432 124, 265.930 124 C 267.383 124, 268.202 122.984, 268.953 120.250 C 269.519 118.188, 271.519 111.637, 273.396 105.693 C 276.727 95.146, 276.758 94.893, 274.679 95.193 C 272.889 95.451, 272.040 97.258, 269.370 106.500 C 265.945 118.356, 265.997 118.360, 263.990 106 C 262.046 94.032, 262.034 94, 259.488 94 C 258.102 94, 256.931 94.720, 256.639 95.750 C 256.367 96.713, 254.905 101.957, 253.392 107.403 L 250.640 117.307 248.817 106.403 C 246.610 93.205, 246.539 93, 244.188 93 C 242.397 93, 242.439 93.660, 245.119 107.750 M 207.415 98.421 C 205.719 99.160, 203.312 101.055, 202.067 102.632 C 200.182 105.022, 199.873 106.417, 200.215 111 C 200.702 117.513, 203.357 123.533, 206.714 125.732 C 208.066 126.618, 211.099 127.285, 213.603 127.247 C 221.629 127.126, 226.411 122.085, 226.226 113.942 C 225.931 101.012, 217.480 94.039, 207.415 98.421 M 293.234 112.751 C 290.905 119.807, 289 126.125, 289 126.790 C 289 127.456, 289.815 128, 290.812 128 C 292.215 128, 293.278 125.953, 295.523 118.929 C 297.117 113.939, 298.691 109.691, 299.019 109.488 C 299.348 109.285, 300.893 114.380, 302.454 120.809 C 305.018 131.376, 306.128 133.938, 308.162 133.985 C 308.527 133.993, 310.885 127.837, 313.403 120.303 C 317.790 107.182, 318.002 105.102, 314.963 105.015 C 314.667 105.007, 312.902 109.612, 311.041 115.250 L 307.657 125.500 304.528 113 C 301.932 102.633, 301.063 100.451, 299.433 100.211 C 297.742 99.962, 296.878 101.710, 293.234 112.751 M 206.511 103.398 C 204.842 105.067, 204.002 107.014, 204.006 109.205 C 204.021 118.488, 208.656 124.642, 214.874 123.633 C 220.763 122.677, 222.261 120.437, 221.804 113.265 C 221.276 104.978, 218.870 101.616, 213.162 101.193 C 209.832 100.946, 208.532 101.377, 206.511 103.398 M 170.177 111.467 C 165.130 113.923, 161 116.323, 161 116.800 C 161 118.684, 162.395 118.826, 166.155 117.321 C 168.315 116.457, 170.239 115.918, 170.429 116.125 C 170.619 116.331, 173.134 121.547, 176.018 127.715 C 180.614 137.548, 181.483 138.812, 183.062 137.967 C 184.718 137.081, 184.426 136.084, 179.431 125.577 C 176.444 119.293, 174 113.960, 174 113.727 C 174 113.494, 175.766 112.508, 177.924 111.534 C 180.465 110.389, 181.660 109.278, 181.317 108.383 C 180.572 106.442, 180.408 106.487, 170.177 111.467 M 138.736 130.750 C 137.294 132.355, 137.536 133.661, 141.649 146.485 C 144.117 154.176, 146.320 160.653, 146.544 160.877 C 146.768 161.101, 147.604 160.743, 148.402 160.081 C 149.623 159.068, 149.652 158.296, 148.583 155.209 L 147.313 151.541 151.826 148.096 L 156.338 144.650 160.069 146.798 C 163.113 148.549, 164.003 148.702, 164.897 147.624 C 165.716 146.637, 165.552 145.926, 164.246 144.806 C 161.943 142.830, 141.425 129, 140.797 129 C 140.529 129, 139.602 129.787, 138.736 130.750 M 352 132.728 C 350.723 134.351, 350.030 136.376, 350.288 137.728 C 350.635 139.540, 350.272 140, 348.498 140 C 345.380 140, 341 144.674, 341 148.002 C 341 151.279, 344.114 155.491, 348.039 157.520 C 352.190 159.667, 353.559 159.394, 357.785 155.576 C 359.869 153.692, 362.410 152.230, 363.430 152.326 C 366.332 152.598, 366.344 150.455, 363.451 148.560 C 360.841 146.850, 360.810 146.861, 357.336 150.921 C 353.393 155.527, 350.174 156.174, 347 153 C 344.418 150.418, 344.450 146.807, 347.077 144.431 C 349.074 142.623, 349.270 142.618, 352.233 144.319 C 356.023 146.494, 358.298 145.091, 355.676 142.195 C 353.571 139.869, 353.526 136.616, 355.571 134.571 C 357.681 132.462, 359.210 132.591, 362.471 135.156 C 364.743 136.943, 365.121 137.869, 364.681 140.578 C 364.005 144.742, 366.521 146.146, 368.170 142.525 C 371.887 134.368, 357.545 125.678, 352 132.728 M 142 134.763 C 142 135.230, 142.948 138.420, 144.107 141.851 L 146.214 148.091 149.303 145.710 C 151.001 144.400, 152.509 142.917, 152.654 142.414 C 152.799 141.911, 150.461 139.793, 147.459 137.708 C 144.457 135.622, 142 134.297, 142 134.763 M 236 139.066 C 225.280 144.972, 218 154.299, 218 162.129 C 218 166.491, 218.331 167.162, 221.735 169.707 C 233.195 178.275, 237.643 186.239, 236.779 196.646 C 236.034 205.640, 230.474 211.081, 216.401 216.590 L 207.500 220.075 216.229 219.649 C 225.635 219.191, 230.943 217.215, 236.342 212.160 C 246.091 203.032, 245.935 186.194, 236.007 176.250 C 231.806 172.042, 233.179 172.137, 240.559 176.565 C 248.036 181.051, 252.835 185.559, 254.658 189.811 C 256 192.940, 255.912 193.411, 253.039 198.432 C 251.367 201.353, 250 204.635, 250 205.724 C 250 209.120, 254.289 214.168, 259.453 216.852 C 263.569 218.990, 266.021 219.477, 273.953 219.730 L 283.500 220.035 277.944 217.768 C 265.200 212.567, 262 208.612, 262 198.067 C 262 187.429, 259.278 183.564, 245.294 174.342 C 235.653 167.986, 232.849 164.481, 232.227 158.013 C 231.648 151.989, 233.751 147.415, 240.096 140.902 C 245.715 135.133, 244.295 134.497, 236 139.066 M 113.106 153.373 C 112.139 154.538, 113.323 155.955, 119.604 161.149 C 123.829 164.642, 126.659 167.618, 125.893 167.761 C 125.127 167.905, 119.775 167.391, 114 166.618 C 105.050 165.421, 103.285 165.418, 102.043 166.600 C 101.128 167.470, 100.942 168.317, 101.543 168.875 C 102.069 169.364, 107.167 173.694, 112.870 178.497 C 120.769 185.149, 123.446 186.904, 124.104 185.865 C 124.579 185.114, 124.862 184.173, 124.734 183.774 C 124.605 183.375, 120.900 180.054, 116.500 176.394 C 109.705 170.742, 108.952 169.829, 111.500 170.330 C 113.150 170.654, 118.904 171.468, 124.287 172.138 C 132.592 173.171, 134.288 173.139, 135.489 171.928 C 136.712 170.694, 135.607 169.413, 127.355 162.500 C 114.105 151.400, 114.521 151.667, 113.106 153.373 M 390.250 180.545 C 383.512 184.708, 378 188.512, 378 188.998 C 378 191.534, 380.966 190.719, 388.513 186.107 C 393.110 183.298, 397.128 181, 397.444 181 C 397.759 181, 395.544 185.930, 392.523 191.955 C 387.612 201.745, 386.547 206, 389.004 206 C 390.824 206, 413 191.592, 413 190.410 C 413 187.734, 411.172 188.285, 402.706 193.512 C 397.918 196.469, 394 198.680, 394 198.427 C 394 198.174, 396.452 193.078, 399.448 187.103 C 403.936 178.155, 404.685 175.953, 403.698 174.608 C 402.633 173.158, 401.136 173.819, 390.250 180.545 M 88.114 188.363 C 86.793 189.955, 86.568 189.793, 102.736 198.920 C 111.445 203.837, 114.030 204.474, 113.977 201.691 C 113.965 201.036, 108.753 197.575, 102.396 194 C 88.508 186.190, 89.569 186.609, 88.114 188.363 M 76.629 211.524 C 76.283 212.426, 76 213.316, 76 213.501 C 76 213.687, 78.362 214.610, 81.250 215.553 C 84.138 216.495, 86.806 217.438, 87.179 217.648 C 88.053 218.140, 84.072 230, 83.034 230 C 82.604 230, 80.338 229.325, 78 228.500 C 72.472 226.550, 71 226.608, 71 228.779 C 71 230.171, 73.772 231.473, 83.750 234.765 C 98.251 239.551, 98.500 239.595, 98.500 237.345 C 98.500 236.236, 96.716 235.084, 93.090 233.852 C 90.114 232.840, 87.530 231.863, 87.347 231.680 C 87.005 231.338, 90.983 219, 91.435 219 C 91.574 219, 94.316 219.904, 97.528 221.010 C 102.107 222.585, 103.543 222.747, 104.170 221.760 C 104.609 221.067, 104.973 220.275, 104.977 220 C 104.982 219.725, 99.251 217.522, 92.243 215.104 C 85.234 212.686, 78.996 210.523, 78.379 210.296 C 77.763 210.070, 76.975 210.623, 76.629 211.524 M 415.964 217.310 C 410.238 223.977, 408.847 225.033, 403.751 226.575 C 397.762 228.389, 397.482 228.634, 398.882 230.843 C 399.585 231.952, 400.713 231.878, 405.345 230.417 C 410.792 228.700, 411.238 228.708, 420.479 230.692 C 427.949 232.295, 430 232.453, 430 231.427 C 430 229.496, 428.255 228.668, 420.619 226.974 L 413.738 225.447 419.005 219.685 C 423.390 214.887, 424.117 213.577, 423.348 211.855 C 422.507 209.969, 421.856 210.450, 415.964 217.310 M 192 241.606 C 192 254.419, 192.431 260.884, 193.584 265.356 C 198.068 282.746, 211.560 297.253, 228.734 303.149 C 237.625 306.201, 253.669 306.426, 262 303.615 C 269.193 301.187, 276.606 296.971, 282.086 292.190 C 285.451 289.254, 288.012 288.023, 292.864 287.009 C 306.537 284.150, 318.903 275.788, 324.159 265.845 C 326.027 262.313, 326.460 259.911, 326.478 253 C 326.497 245.680, 326.177 244.047, 324.171 241.235 C 320.813 236.527, 316.613 234.728, 307.750 234.203 L 300 233.743 300 228.872 L 300 224 246 224 L 192 224 192 241.606 M 199 245.843 C 199 261.839, 200.203 267.551, 205.459 276.520 C 208.666 281.992, 218.634 291.160, 224.423 293.963 C 238.196 300.630, 253.804 300.630, 267.577 293.963 C 273.825 290.938, 283.323 281.936, 286.882 275.665 C 291.841 266.927, 293 261.178, 293 245.318 L 293 231 246 231 L 199 231 199 245.843 M 300.667 242.667 C 300.300 243.033, 300 246.906, 300 251.272 C 300 259.849, 298.025 269.071, 294.858 275.278 L 292.869 279.176 295.185 278.481 C 304.104 275.803, 312.454 270.237, 315.889 264.680 C 320.632 257.005, 320.453 246.837, 315.517 243.603 C 313.062 241.994, 302.034 241.299, 300.667 242.667 M 71.255 253.174 C 62.530 255.542, 61.791 270.165, 70.171 274.648 C 72.469 275.877, 75.771 276.439, 80.830 276.464 C 87.790 276.498, 88.300 276.343, 90.943 273.388 C 96.678 266.974, 95.272 257.097, 88.224 254.281 C 85.323 253.123, 84.873 253.168, 84.294 254.676 C 83.934 255.613, 84.149 256.550, 84.770 256.757 C 85.391 256.964, 87.047 258.036, 88.450 259.139 C 91.588 261.608, 91.882 266.690, 89.086 270.139 C 87.425 272.189, 86.311 272.498, 80.635 272.482 C 75.596 272.467, 73.456 271.986, 71.299 270.382 C 65.946 266.402, 67.601 257, 73.655 257 C 75.310 257, 76 256.429, 76 255.059 C 76 252.475, 75.120 252.125, 71.255 253.174 M 413.741 253.376 C 408.712 255.242, 407.308 256.536, 405.995 260.515 C 403.653 267.612, 408.311 276, 414.595 276 C 417.320 276, 417.733 275.694, 417.290 274 C 416.953 272.713, 415.926 272, 414.406 272 C 411.323 272, 408.772 268.056, 409.181 263.920 C 409.678 258.897, 413.642 256.541, 421.635 256.518 C 427.311 256.502, 428.425 256.811, 430.086 258.861 C 432.013 261.238, 432.615 266.484, 431.214 268.687 C 430.799 269.341, 429.198 270.354, 427.657 270.940 C 424.376 272.188, 424.276 275.717, 427.536 275.171 C 436.140 273.730, 438.776 261.992, 431.962 255.464 C 429.541 253.144, 427.954 252.569, 423.251 252.304 C 419.974 252.120, 415.883 252.581, 413.741 253.376 M 192 300.911 C 192 304.152, 205.658 311.396, 215.837 313.553 C 225.095 315.515, 266.905 315.515, 276.163 313.553 C 286.342 311.396, 300 304.152, 300 300.911 C 300 300.410, 295.598 300, 290.217 300 C 280.971 300, 280.075 300.191, 273.885 303.478 C 265.120 308.132, 256.287 310.290, 246 310.290 C 235.713 310.290, 226.880 308.132, 218.115 303.478 C 211.925 300.191, 211.029 300, 201.783 300 C 196.402 300, 192 300.410, 192 300.911 M 170.667 319.667 C 170.300 320.033, 170 331.733, 170 345.667 L 170 371 176 371 L 182 371 182 359.500 C 182 349.333, 182.232 347.768, 184 346 C 186.233 343.767, 188.195 343.499, 191.066 345.035 C 192.819 345.974, 193 347.235, 193 358.535 L 193 371 199 371 L 205 371 205 357.434 C 205 349.347, 204.546 342.986, 203.875 341.684 C 200.289 334.722, 194.179 332.139, 186.651 334.404 L 182 335.804 182 327.402 L 182 319 176.667 319 C 173.733 319, 171.033 319.300, 170.667 319.667 M 15 347 L 15 371 21 371 L 27 371 27.083 356.250 L 27.166 341.500 30.424 353.500 C 32.216 360.100, 33.987 366.738, 34.360 368.250 C 34.996 370.828, 35.377 371, 40.448 371 L 45.858 371 47.348 365.750 C 48.168 362.863, 49.837 356.675, 51.057 352 C 52.277 347.325, 53.650 342.825, 54.108 342 C 54.580 341.148, 54.952 347.089, 54.970 355.750 L 55 371 61.151 371 L 67.302 371 66.656 361.250 C 66.301 355.887, 66.008 345.070, 66.005 337.211 L 66 322.922 57.282 323.211 L 48.564 323.500 46.244 332 C 44.967 336.675, 43.205 342.975, 42.328 346 L 40.734 351.500 37.954 341.500 C 36.424 336, 34.667 329.587, 34.048 327.250 L 32.923 323 23.961 323 L 15 323 15 347 M 264 347 L 264 371 277.500 371 L 291 371 291 365.500 L 291 360 283.500 360 L 276 360 276 341.500 L 276 323 270 323 L 264 323 264 347 M 118 329.434 C 118 333.527, 117.789 333.891, 115.250 334.184 C 112.685 334.479, 112.480 334.853, 112.198 339.750 L 111.895 345 114.948 345 L 118 345 118 358 L 118 371 124 371 L 130 371 130 358 L 130 345 133.552 345 L 137.105 345 136.802 339.750 C 136.508 334.630, 136.419 334.492, 133.250 334.187 C 130.119 333.885, 130 333.711, 130 329.437 L 130 325 124 325 L 118 325 118 329.434 M 84.037 334.214 C 78.870 335.637, 75.415 338.511, 73.086 343.323 C 68.940 351.887, 71.302 363.077, 78.398 368.490 C 82.903 371.926, 89.547 372.871, 93.907 370.696 C 95.608 369.848, 97 369.569, 97 370.077 C 97 370.584, 99.700 371, 103 371 L 109 371 109 352.500 L 109 334 103.559 334 C 100.566 334, 97.839 334.451, 97.498 335.003 C 97.126 335.605, 96.203 335.661, 95.189 335.144 C 92.201 333.619, 87.592 333.235, 84.037 334.214 M 221.037 334.214 C 215.870 335.637, 212.415 338.511, 210.086 343.323 C 205.940 351.887, 208.302 363.077, 215.398 368.490 C 219.903 371.926, 226.547 372.871, 230.907 370.696 C 232.608 369.848, 234 369.569, 234 370.077 C 234 370.584, 236.700 371, 240 371 L 246 371 246 352.500 L 246 334 240.559 334 C 237.566 334, 234.839 334.451, 234.498 335.003 C 234.126 335.605, 233.203 335.661, 232.189 335.144 C 229.201 333.619, 224.592 333.235, 221.037 334.214 M 304.655 334.406 C 293.771 338.436, 288.925 351.016, 294.121 361.750 C 300 373.894, 318.122 375.573, 326.385 364.739 C 331.236 358.380, 331.575 348.903, 327.206 341.833 C 323.044 335.098, 312.322 331.567, 304.655 334.406 M 390.413 333.933 C 388.715 334.344, 386.802 335.004, 386.163 335.399 C 385.523 335.795, 385 335.619, 385 335.009 C 385 334.291, 382.973 334.006, 379.250 334.200 L 373.500 334.500 373.227 352.750 L 372.955 371 378.977 371 L 385 371 385 359.500 C 385 349.333, 385.232 347.768, 387 346 C 389.402 343.598, 392.288 343.431, 394.429 345.571 C 395.681 346.824, 396 349.561, 396 359.071 L 396 371 402 371 L 408 371 407.998 357.750 C 407.997 347.112, 407.652 343.824, 406.248 341.071 C 403.197 335.086, 397.064 332.322, 390.413 333.933 M 462.500 334.439 C 454.645 337.301, 449.065 347.328, 450.602 355.820 C 452.614 366.945, 461.367 372.863, 474.116 371.718 C 482.634 370.953, 484 369.885, 484 363.990 L 484 359.050 481.250 360.115 C 479.738 360.701, 475.885 361.212, 472.690 361.252 C 468.007 361.310, 466.459 360.904, 464.717 359.162 L 462.556 357 474.278 357 L 486 357 486 351.386 C 486 338.257, 474.596 330.033, 462.500 334.439 M 146.530 336.282 C 141.520 339.119, 138.293 343.864, 137.422 349.673 C 135.485 362.590, 146.553 373.430, 159.823 371.611 C 162.211 371.283, 164.579 370.760, 165.083 370.449 C 165.587 370.137, 166 367.691, 166 365.013 L 166 360.145 160.533 360.709 C 153.942 361.389, 150.511 359.605, 149.493 354.968 C 147.704 346.825, 154.110 342.468, 164 345.101 C 165.156 345.408, 165.571 344.374, 165.811 340.597 C 166.194 334.561, 165.481 334.030, 157 334.032 C 152.106 334.033, 149.519 334.588, 146.530 336.282 M 333.667 334.667 C 332.625 335.709, 332.896 358.086, 333.999 362.057 C 334.543 364.013, 336.370 366.938, 338.059 368.557 C 340.778 371.162, 341.783 371.483, 346.815 371.353 C 349.942 371.272, 355.988 371.181, 360.250 371.150 L 368 371.095 368 352.498 L 368 333.900 362.250 334.200 L 356.500 334.500 356.217 346.438 C 356.058 353.140, 355.456 358.951, 354.844 359.688 C 353.129 361.755, 347.252 361.340, 346.035 359.066 C 345.466 358.002, 345 351.927, 345 345.566 L 345 334 339.667 334 C 336.733 334, 334.033 334.300, 333.667 334.667 M 418.990 336.250 C 417.172 337.488, 414.792 339.704, 413.702 341.176 C 411.276 344.451, 410.369 352.558, 411.907 357.218 C 414.476 365.001, 423.199 369.300, 430.983 366.618 C 434.657 365.352, 435 365.382, 435 366.962 C 435 371.454, 428.422 373.409, 419.250 371.643 L 415 370.824 415 375.937 C 415 380.591, 415.247 381.144, 417.750 382.108 C 419.262 382.690, 423.908 383.016, 428.073 382.833 C 434.255 382.561, 436.385 382.011, 439.667 379.839 C 446.316 375.439, 447 372.852, 447 352.099 L 447 334 441.583 334 C 438.408 334, 436.009 334.473, 435.786 335.143 C 435.500 336.001, 434.871 336.001, 433.268 335.143 C 429.659 333.212, 422.657 333.754, 418.990 336.250 M 85 346 C 83.608 347.392, 83 349.333, 83 352.389 C 83 358.120, 85.515 361.333, 90 361.333 C 94.485 361.333, 97 358.120, 97 352.389 C 97 347.096, 94.416 344, 90 344 C 88.333 344, 86.111 344.889, 85 346 M 222 346 C 220.608 347.392, 220 349.333, 220 352.389 C 220 358.120, 222.515 361.333, 227 361.333 C 231.485 361.333, 234 358.120, 234 352.389 C 234 347.096, 231.416 344, 227 344 C 225.333 344, 223.111 344.889, 222 346 M 306.174 346.314 C 303.443 349.222, 303.225 355.822, 305.758 358.949 C 307.971 361.682, 313.265 361.975, 315.983 359.515 C 318.777 356.987, 319.518 351.902, 317.625 348.243 C 315.102 343.364, 309.787 342.469, 306.174 346.314 M 424.655 345.829 C 422.240 348.497, 422.476 354.649, 425.046 356.025 C 428.625 357.940, 433.325 356.837, 434.805 353.734 C 438.024 346.985, 429.569 340.399, 424.655 345.829 M 464.500 346 C 462.708 347.980, 462.753 348, 469 348 C 475.247 348, 475.292 347.980, 473.500 346 C 472.505 344.900, 470.480 344, 469 344 C 467.520 344, 465.495 344.900, 464.500 346" stroke="none" fill="#714d27" fill-rule="evenodd"/><path d="M 0 250.002 L 0 500.004 250.250 499.752 L 500.500 499.500 500.752 249.750 L 501.004 0 250.502 0 L 0 0 0 250.002 M 0.492 250.500 C 0.492 388, 0.608 444.101, 0.750 375.170 C 0.892 306.238, 0.892 193.738, 0.750 125.170 C 0.608 56.601, 0.492 113, 0.492 250.500 M 245.119 107.750 C 246.662 115.862, 247.941 122.612, 247.962 122.750 C 247.983 122.888, 249.048 123, 250.329 123 C 252.433 123, 252.931 122.009, 255.478 112.750 C 257.030 107.112, 258.536 102.077, 258.826 101.561 C 259.115 101.044, 260.119 105.191, 261.056 110.776 C 263.143 123.214, 263.432 124, 265.930 124 C 267.383 124, 268.202 122.984, 268.953 120.250 C 269.519 118.188, 271.519 111.637, 273.396 105.693 C 276.727 95.146, 276.758 94.893, 274.679 95.193 C 272.889 95.451, 272.040 97.258, 269.370 106.500 C 265.945 118.356, 265.997 118.360, 263.990 106 C 262.046 94.032, 262.034 94, 259.488 94 C 258.102 94, 256.931 94.720, 256.639 95.750 C 256.367 96.713, 254.905 101.957, 253.392 107.403 L 250.640 117.307 248.817 106.403 C 246.610 93.205, 246.539 93, 244.188 93 C 242.397 93, 242.439 93.660, 245.119 107.750 M 207.415 98.421 C 205.719 99.160, 203.312 101.055, 202.067 102.632 C 200.182 105.022, 199.873 106.417, 200.215 111 C 200.702 117.513, 203.357 123.533, 206.714 125.732 C 208.066 126.618, 211.099 127.285, 213.603 127.247 C 221.629 127.126, 226.411 122.085, 226.226 113.942 C 225.931 101.012, 217.480 94.039, 207.415 98.421 M 293.234 112.751 C 290.905 119.807, 289 126.125, 289 126.790 C 289 127.456, 289.815 128, 290.812 128 C 292.215 128, 293.278 125.953, 295.523 118.929 C 297.117 113.939, 298.691 109.691, 299.019 109.488 C 299.348 109.285, 300.893 114.380, 302.454 120.809 C 305.018 131.376, 306.128 133.938, 308.162 133.985 C 308.527 133.993, 310.885 127.837, 313.403 120.303 C 317.790 107.182, 318.002 105.102, 314.963 105.015 C 314.667 105.007, 312.902 109.612, 311.041 115.250 L 307.657 125.500 304.528 113 C 301.932 102.633, 301.063 100.451, 299.433 100.211 C 297.742 99.962, 296.878 101.710, 293.234 112.751 M 206.511 103.398 C 204.842 105.067, 204.002 107.014, 204.006 109.205 C 204.021 118.488, 208.656 124.642, 214.874 123.633 C 220.763 122.677, 222.261 120.437, 221.804 113.265 C 221.276 104.978, 218.870 101.616, 213.162 101.193 C 209.832 100.946, 208.532 101.377, 206.511 103.398 M 170.177 111.467 C 165.130 113.923, 161 116.323, 161 116.800 C 161 118.684, 162.395 118.826, 166.155 117.321 C 168.315 116.457, 170.239 115.918, 170.429 116.125 C 170.619 116.331, 173.134 121.547, 176.018 127.715 C 180.614 137.548, 181.483 138.812, 183.062 137.967 C 184.718 137.081, 184.426 136.084, 179.431 125.577 C 176.444 119.293, 174 113.960, 174 113.727 C 174 113.494, 175.766 112.508, 177.924 111.534 C 180.465 110.389, 181.660 109.278, 181.317 108.383 C 180.572 106.442, 180.408 106.487, 170.177 111.467 M 138.736 130.750 C 137.294 132.355, 137.536 133.661, 141.649 146.485 C 144.117 154.176, 146.320 160.653, 146.544 160.877 C 146.768 161.101, 147.604 160.743, 148.402 160.081 C 149.623 159.068, 149.652 158.296, 148.583 155.209 L 147.313 151.541 151.826 148.096 L 156.338 144.650 160.069 146.798 C 163.113 148.549, 164.003 148.702, 164.897 147.624 C 165.716 146.637, 165.552 145.926, 164.246 144.806 C 161.943 142.830, 141.425 129, 140.797 129 C 140.529 129, 139.602 129.787, 138.736 130.750 M 352 132.728 C 350.723 134.351, 350.030 136.376, 350.288 137.728 C 350.635 139.540, 350.272 140, 348.498 140 C 345.380 140, 341 144.674, 341 148.002 C 341 151.279, 344.114 155.491, 348.039 157.520 C 352.190 159.667, 353.559 159.394, 357.785 155.576 C 359.869 153.692, 362.410 152.230, 363.430 152.326 C 366.332 152.598, 366.344 150.455, 363.451 148.560 C 360.841 146.850, 360.810 146.861, 357.336 150.921 C 353.393 155.527, 350.174 156.174, 347 153 C 344.418 150.418, 344.450 146.807, 347.077 144.431 C 349.074 142.623, 349.270 142.618, 352.233 144.319 C 356.023 146.494, 358.298 145.091, 355.676 142.195 C 353.571 139.869, 353.526 136.616, 355.571 134.571 C 357.681 132.462, 359.210 132.591, 362.471 135.156 C 364.743 136.943, 365.121 137.869, 364.681 140.578 C 364.005 144.742, 366.521 146.146, 368.170 142.525 C 371.887 134.368, 357.545 125.678, 352 132.728 M 142 134.763 C 142 135.230, 142.948 138.420, 144.107 141.851 L 146.214 148.091 149.303 145.710 C 151.001 144.400, 152.509 142.917, 152.654 142.414 C 152.799 141.911, 150.461 139.793, 147.459 137.708 C 144.457 135.622, 142 134.297, 142 134.763 M 236 139.066 C 225.280 144.972, 218 154.299, 218 162.129 C 218 166.491, 218.331 167.162, 221.735 169.707 C 233.195 178.275, 237.643 186.239, 236.779 196.646 C 236.034 205.640, 230.474 211.081, 216.401 216.590 L 207.500 220.075 216.229 219.649 C 225.635 219.191, 230.943 217.215, 236.342 212.160 C 246.091 203.032, 245.935 186.194, 236.007 176.250 C 231.806 172.042, 233.179 172.137, 240.559 176.565 C 248.036 181.051, 252.835 185.559, 254.658 189.811 C 256 192.940, 255.912 193.411, 253.039 198.432 C 251.367 201.353, 250 204.635, 250 205.724 C 250 209.120, 254.289 214.168, 259.453 216.852 C 263.569 218.990, 266.021 219.477, 273.953 219.730 L 283.500 220.035 277.944 217.768 C 265.200 212.567, 262 208.612, 262 198.067 C 262 187.429, 259.278 183.564, 245.294 174.342 C 235.653 167.986, 232.849 164.481, 232.227 158.013 C 231.648 151.989, 233.751 147.415, 240.096 140.902 C 245.715 135.133, 244.295 134.497, 236 139.066 M 113.106 153.373 C 112.139 154.538, 113.323 155.955, 119.604 161.149 C 123.829 164.642, 126.659 167.618, 125.893 167.761 C 125.127 167.905, 119.775 167.391, 114 166.618 C 105.050 165.421, 103.285 165.418, 102.043 166.600 C 101.128 167.470, 100.942 168.317, 101.543 168.875 C 102.069 169.364, 107.167 173.694, 112.870 178.497 C 120.769 185.149, 123.446 186.904, 124.104 185.865 C 124.579 185.114, 124.862 184.173, 124.734 183.774 C 124.605 183.375, 120.900 180.054, 116.500 176.394 C 109.705 170.742, 108.952 169.829, 111.500 170.330 C 113.150 170.654, 118.904 171.468, 124.287 172.138 C 132.592 173.171, 134.288 173.139, 135.489 171.928 C 136.712 170.694, 135.607 169.413, 127.355 162.500 C 114.105 151.400, 114.521 151.667, 113.106 153.373 M 390.250 180.545 C 383.512 184.708, 378 188.512, 378 188.998 C 378 191.534, 380.966 190.719, 388.513 186.107 C 393.110 183.298, 397.128 181, 397.444 181 C 397.759 181, 395.544 185.930, 392.523 191.955 C 387.612 201.745, 386.547 206, 389.004 206 C 390.824 206, 413 191.592, 413 190.410 C 413 187.734, 411.172 188.285, 402.706 193.512 C 397.918 196.469, 394 198.680, 394 198.427 C 394 198.174, 396.452 193.078, 399.448 187.103 C 403.936 178.155, 404.685 175.953, 403.698 174.608 C 402.633 173.158, 401.136 173.819, 390.250 180.545 M 88.114 188.363 C 86.793 189.955, 86.568 189.793, 102.736 198.920 C 111.445 203.837, 114.030 204.474, 113.977 201.691 C 113.965 201.036, 108.753 197.575, 102.396 194 C 88.508 186.190, 89.569 186.609, 88.114 188.363 M 76.629 211.524 C 76.283 212.426, 76 213.316, 76 213.501 C 76 213.687, 78.362 214.610, 81.250 215.553 C 84.138 216.495, 86.806 217.438, 87.179 217.648 C 88.053 218.140, 84.072 230, 83.034 230 C 82.604 230, 80.338 229.325, 78 228.500 C 72.472 226.550, 71 226.608, 71 228.779 C 71 230.171, 73.772 231.473, 83.750 234.765 C 98.251 239.551, 98.500 239.595, 98.500 237.345 C 98.500 236.236, 96.716 235.084, 93.090 233.852 C 90.114 232.840, 87.530 231.863, 87.347 231.680 C 87.005 231.338, 90.983 219, 91.435 219 C 91.574 219, 94.316 219.904, 97.528 221.010 C 102.107 222.585, 103.543 222.747, 104.170 221.760 C 104.609 221.067, 104.973 220.275, 104.977 220 C 104.982 219.725, 99.251 217.522, 92.243 215.104 C 85.234 212.686, 78.996 210.523, 78.379 210.296 C 77.763 210.070, 76.975 210.623, 76.629 211.524 M 415.964 217.310 C 410.238 223.977, 408.847 225.033, 403.751 226.575 C 397.762 228.389, 397.482 228.634, 398.882 230.843 C 399.585 231.952, 400.713 231.878, 405.345 230.417 C 410.792 228.700, 411.238 228.708, 420.479 230.692 C 427.949 232.295, 430 232.453, 430 231.427 C 430 229.496, 428.255 228.668, 420.619 226.974 L 413.738 225.447 419.005 219.685 C 423.390 214.887, 424.117 213.577, 423.348 211.855 C 422.507 209.969, 421.856 210.450, 415.964 217.310 M 192 241.606 C 192 254.419, 192.431 260.884, 193.584 265.356 C 198.068 282.746, 211.560 297.253, 228.734 303.149 C 237.625 306.201, 253.669 306.426, 262 303.615 C 269.193 301.187, 276.606 296.971, 282.086 292.190 C 285.451 289.254, 288.012 288.023, 292.864 287.009 C 306.537 284.150, 318.903 275.788, 324.159 265.845 C 326.027 262.313, 326.460 259.911, 326.478 253 C 326.497 245.680, 326.177 244.047, 324.171 241.235 C 320.813 236.527, 316.613 234.728, 307.750 234.203 L 300 233.743 300 228.872 L 300 224 246 224 L 192 224 192 241.606 M 199 245.843 C 199 261.839, 200.203 267.551, 205.459 276.520 C 208.666 281.992, 218.634 291.160, 224.423 293.963 C 238.196 300.630, 253.804 300.630, 267.577 293.963 C 273.825 290.938, 283.323 281.936, 286.882 275.665 C 291.841 266.927, 293 261.178, 293 245.318 L 293 231 246 231 L 199 231 199 245.843 M 300.667 242.667 C 300.300 243.033, 300 246.906, 300 251.272 C 300 259.849, 298.025 269.071, 294.858 275.278 L 292.869 279.176 295.185 278.481 C 304.104 275.803, 312.454 270.237, 315.889 264.680 C 320.632 257.005, 320.453 246.837, 315.517 243.603 C 313.062 241.994, 302.034 241.299, 300.667 242.667 M 71.255 253.174 C 62.530 255.542, 61.791 270.165, 70.171 274.648 C 72.469 275.877, 75.771 276.439, 80.830 276.464 C 87.790 276.498, 88.300 276.343, 90.943 273.388 C 96.678 266.974, 95.272 257.097, 88.224 254.281 C 85.323 253.123, 84.873 253.168, 84.294 254.676 C 83.934 255.613, 84.149 256.550, 84.770 256.757 C 85.391 256.964, 87.047 258.036, 88.450 259.139 C 91.588 261.608, 91.882 266.690, 89.086 270.139 C 87.425 272.189, 86.311 272.498, 80.635 272.482 C 75.596 272.467, 73.456 271.986, 71.299 270.382 C 65.946 266.402, 67.601 257, 73.655 257 C 75.310 257, 76 256.429, 76 255.059 C 76 252.475, 75.120 252.125, 71.255 253.174 M 413.741 253.376 C 408.712 255.242, 407.308 256.536, 405.995 260.515 C 403.653 267.612, 408.311 276, 414.595 276 C 417.320 276, 417.733 275.694, 417.290 274 C 416.953 272.713, 415.926 272, 414.406 272 C 411.323 272, 408.772 268.056, 409.181 263.920 C 409.678 258.897, 413.642 256.541, 421.635 256.518 C 427.311 256.502, 428.425 256.811, 430.086 258.861 C 432.013 261.238, 432.615 266.484, 431.214 268.687 C 430.799 269.341, 429.198 270.354, 427.657 270.940 C 424.376 272.188, 424.276 275.717, 427.536 275.171 C 436.140 273.730, 438.776 261.992, 431.962 255.464 C 429.541 253.144, 427.954 252.569, 423.251 252.304 C 419.974 252.120, 415.883 252.581, 413.741 253.376 M 192 300.911 C 192 304.152, 205.658 311.396, 215.837 313.553 C 225.095 315.515, 266.905 315.515, 276.163 313.553 C 286.342 311.396, 300 304.152, 300 300.911 C 300 300.410, 295.598 300, 290.217 300 C 280.971 300, 280.075 300.191, 273.885 303.478 C 265.120 308.132, 256.287 310.290, 246 310.290 C 235.713 310.290, 226.880 308.132, 218.115 303.478 C 211.925 300.191, 211.029 300, 201.783 300 C 196.402 300, 192 300.410, 192 300.911 M 170.667 319.667 C 170.300 320.033, 170 331.733, 170 345.667 L 170 371 176 371 L 182 371 182 359.500 C 182 349.333, 182.232 347.768, 184 346 C 186.233 343.767, 188.195 343.499, 191.066 345.035 C 192.819 345.974, 193 347.235, 193 358.535 L 193 371 199 371 L 205 371 205 357.434 C 205 349.347, 204.546 342.986, 203.875 341.684 C 200.289 334.722, 194.179 332.139, 186.651 334.404 L 182 335.804 182 327.402 L 182 319 176.667 319 C 173.733 319, 171.033 319.300, 170.667 319.667 M 15 347 L 15 371 21 371 L 27 371 27.083 356.250 L 27.166 341.500 30.424 353.500 C 32.216 360.100, 33.987 366.738, 34.360 368.250 C 34.996 370.828, 35.377 371, 40.448 371 L 45.858 371 47.348 365.750 C 48.168 362.863, 49.837 356.675, 51.057 352 C 52.277 347.325, 53.650 342.825, 54.108 342 C 54.580 341.148, 54.952 347.089, 54.970 355.750 L 55 371 61.151 371 L 67.302 371 66.656 361.250 C 66.301 355.887, 66.008 345.070, 66.005 337.211 L 66 322.922 57.282 323.211 L 48.564 323.500 46.244 332 C 44.967 336.675, 43.205 342.975, 42.328 346 L 40.734 351.500 37.954 341.500 C 36.424 336, 34.667 329.587, 34.048 327.250 L 32.923 323 23.961 323 L 15 323 15 347 M 264 347 L 264 371 277.500 371 L 291 371 291 365.500 L 291 360 283.500 360 L 276 360 276 341.500 L 276 323 270 323 L 264 323 264 347 M 118 329.434 C 118 333.527, 117.789 333.891, 115.250 334.184 C 112.685 334.479, 112.480 334.853, 112.198 339.750 L 111.895 345 114.948 345 L 118 345 118 358 L 118 371 124 371 L 130 371 130 358 L 130 345 133.552 345 L 137.105 345 136.802 339.750 C 136.508 334.630, 136.419 334.492, 133.250 334.187 C 130.119 333.885, 130 333.711, 130 329.437 L 130 325 124 325 L 118 325 118 329.434 M 84.037 334.214 C 78.870 335.637, 75.415 338.511, 73.086 343.323 C 68.940 351.887, 71.302 363.077, 78.398 368.490 C 82.903 371.926, 89.547 372.871, 93.907 370.696 C 95.608 369.848, 97 369.569, 97 370.077 C 97 370.584, 99.700 371, 103 371 L 109 371 109 352.500 L 109 334 103.559 334 C 100.566 334, 97.839 334.451, 97.498 335.003 C 97.126 335.605, 96.203 335.661, 95.189 335.144 C 92.201 333.619, 87.592 333.235, 84.037 334.214 M 221.037 334.214 C 215.870 335.637, 212.415 338.511, 210.086 343.323 C 205.940 351.887, 208.302 363.077, 215.398 368.490 C 219.903 371.926, 226.547 372.871, 230.907 370.696 C 232.608 369.848, 234 369.569, 234 370.077 C 234 370.584, 236.700 371, 240 371 L 246 371 246 352.500 L 246 334 240.559 334 C 237.566 334, 234.839 334.451, 234.498 335.003 C 234.126 335.605, 233.203 335.661, 232.189 335.144 C 229.201 333.619, 224.592 333.235, 221.037 334.214 M 304.655 334.406 C 293.771 338.436, 288.925 351.016, 294.121 361.750 C 300 373.894, 318.122 375.573, 326.385 364.739 C 331.236 358.380, 331.575 348.903, 327.206 341.833 C 323.044 335.098, 312.322 331.567, 304.655 334.406 M 390.413 333.933 C 388.715 334.344, 386.802 335.004, 386.163 335.399 C 385.523 335.795, 385 335.619, 385 335.009 C 385 334.291, 382.973 334.006, 379.250 334.200 L 373.500 334.500 373.227 352.750 L 372.955 371 378.977 371 L 385 371 385 359.500 C 385 349.333, 385.232 347.768, 387 346 C 389.402 343.598, 392.288 343.431, 394.429 345.571 C 395.681 346.824, 396 349.561, 396 359.071 L 396 371 402 371 L 408 371 407.998 357.750 C 407.997 347.112, 407.652 343.824, 406.248 341.071 C 403.197 335.086, 397.064 332.322, 390.413 333.933 M 462.500 334.439 C 454.645 337.301, 449.065 347.328, 450.602 355.820 C 452.614 366.945, 461.367 372.863, 474.116 371.718 C 482.634 370.953, 484 369.885, 484 363.990 L 484 359.050 481.250 360.115 C 479.738 360.701, 475.885 361.212, 472.690 361.252 C 468.007 361.310, 466.459 360.904, 464.717 359.162 L 462.556 357 474.278 357 L 486 357 486 351.386 C 486 338.257, 474.596 330.033, 462.500 334.439 M 146.530 336.282 C 141.520 339.119, 138.293 343.864, 137.422 349.673 C 135.485 362.590, 146.553 373.430, 159.823 371.611 C 162.211 371.283, 164.579 370.760, 165.083 370.449 C 165.587 370.137, 166 367.691, 166 365.013 L 166 360.145 160.533 360.709 C 153.942 361.389, 150.511 359.605, 149.493 354.968 C 147.704 346.825, 154.110 342.468, 164 345.101 C 165.156 345.408, 165.571 344.374, 165.811 340.597 C 166.194 334.561, 165.481 334.030, 157 334.032 C 152.106 334.033, 149.519 334.588, 146.530 336.282 M 333.667 334.667 C 332.625 335.709, 332.896 358.086, 333.999 362.057 C 334.543 364.013, 336.370 366.938, 338.059 368.557 C 340.778 371.162, 341.783 371.483, 346.815 371.353 C 349.942 371.272, 355.988 371.181, 360.250 371.150 L 368 371.095 368 352.498 L 368 333.900 362.250 334.200 L 356.500 334.500 356.217 346.438 C 356.058 353.140, 355.456 358.951, 354.844 359.688 C 353.129 361.755, 347.252 361.340, 346.035 359.066 C 345.466 358.002, 345 351.927, 345 345.566 L 345 334 339.667 334 C 336.733 334, 334.033 334.300, 333.667 334.667 M 418.990 336.250 C 417.172 337.488, 414.792 339.704, 413.702 341.176 C 411.276 344.451, 410.369 352.558, 411.907 357.218 C 414.476 365.001, 423.199 369.300, 430.983 366.618 C 434.657 365.352, 435 365.382, 435 366.962 C 435 371.454, 428.422 373.409, 419.250 371.643 L 415 370.824 415 375.937 C 415 380.591, 415.247 381.144, 417.750 382.108 C 419.262 382.690, 423.908 383.016, 428.073 382.833 C 434.255 382.561, 436.385 382.011, 439.667 379.839 C 446.316 375.439, 447 372.852, 447 352.099 L 447 334 441.583 334 C 438.408 334, 436.009 334.473, 435.786 335.143 C 435.500 336.001, 434.871 336.001, 433.268 335.143 C 429.659 333.212, 422.657 333.754, 418.990 336.250 M 85 346 C 83.608 347.392, 83 349.333, 83 352.389 C 83 358.120, 85.515 361.333, 90 361.333 C 94.485 361.333, 97 358.120, 97 352.389 C 97 347.096, 94.416 344, 90 344 C 88.333 344, 86.111 344.889, 85 346 M 222 346 C 220.608 347.392, 220 349.333, 220 352.389 C 220 358.120, 222.515 361.333, 227 361.333 C 231.485 361.333, 234 358.120, 234 352.389 C 234 347.096, 231.416 344, 227 344 C 225.333 344, 223.111 344.889, 222 346 M 306.174 346.314 C 303.443 349.222, 303.225 355.822, 305.758 358.949 C 307.971 361.682, 313.265 361.975, 315.983 359.515 C 318.777 356.987, 319.518 351.902, 317.625 348.243 C 315.102 343.364, 309.787 342.469, 306.174 346.314 M 424.655 345.829 C 422.240 348.497, 422.476 354.649, 425.046 356.025 C 428.625 357.940, 433.325 356.837, 434.805 353.734 C 438.024 346.985, 429.569 340.399, 424.655 345.829 M 464.500 346 C 462.708 347.980, 462.753 348, 469 348 C 475.247 348, 475.292 347.980, 473.500 346 C 472.505 344.900, 470.480 344, 469 344 C 467.520 344, 465.495 344.900, 464.500 346" stroke="none" fill="#e3dbc3" fill-rule="evenodd"/></svg>